<svg width="168" height="50" viewBox="0 0 168 50" fill="none" xmlns="http://www.w3.org/2000/svg">
<path d="M0.191223 0.0996094H3.03956L4.30552 7.09961L4.93848 11.1996L7.94506 4.39961H10.6352L13.6418 11.1996L14.2747 7.09961L15.3824 0.0996094H18.2308L15.6989 12.7996H11.9011L9.05277 6.59961L6.20439 12.7996H2.4066L0.191223 0.0996094Z" fill="black"/>
<path d="M27.567 11.1996H32.4725V1.69961H27.567V0.0996094H40.2264V1.69961H35.3209V11.1996H40.2264V12.7996H27.567V11.1996Z" fill="black"/>
<path d="M52.411 0.0996094H55.4176V11.1996H65.7033V12.7996H52.5693L52.411 0.0996094Z" fill="black"/>
<path d="M77.2549 0.0996094H83.1099C89.5978 0.0996094 91.4967 2.79961 91.4967 6.39961C91.4967 10.0996 89.5978 12.8996 83.1099 12.8996H77.2549V0.0996094ZM80.2616 11.1996H83.1099C85.4835 11.1996 86.9077 10.4996 87.5407 9.59961C88.1736 8.69961 88.3319 7.49961 88.3319 6.39961C88.3319 5.89961 88.3319 5.29961 88.1737 4.79961C88.1737 4.19961 87.8571 3.69961 87.5407 3.29961C86.9077 2.39961 85.4835 1.69961 83.1099 1.69961H80.2616V11.1996Z" fill="black"/>
<path d="M8.26159 30.8994C3.35609 30.8994 0.665955 29.6994 0.665955 27.3994C0.665955 25.8994 1.93191 24.7994 4.14729 24.3994C2.40663 23.8994 1.14071 22.9994 1.14071 21.4994C1.14071 19.1994 4.1473 17.8994 8.26159 17.8994C11.7429 17.8994 15.0659 18.6994 15.5407 21.5994H12.6923C12.5341 20.7994 12.2176 20.1994 11.4264 19.8994C10.6352 19.5994 9.68573 19.3994 8.41979 19.3994C7.15386 19.3994 6.20442 19.5994 5.41321 19.8994C4.622 20.1994 4.14729 20.6994 4.14729 21.4994C4.14729 22.9994 5.88796 23.5994 9.0528 23.5994H18.7055V25.0994H15.6989V30.8994H8.26159ZM12.5341 29.3994V25.1994H8.73629C7.31212 25.1994 6.0462 25.3994 5.09675 25.6994C4.1473 25.9994 3.67254 26.5994 3.67254 27.3994C3.67254 28.8994 5.72969 29.3994 8.57804 29.3994H12.5341Z" fill="black"/>
<path d="M57.3165 25.7996L49.5626 18.0996H52.8857L55.8923 21.0996L58.8989 24.2996L61.9055 21.0996L64.9121 18.0996H68.2352L60.4813 25.7996V30.8996H57.4747V25.7996H57.3165Z" fill="black"/>
<path d="M76.7802 26.3992V18.1992H79.7868V26.3992C79.7868 27.4992 80.1033 28.2992 80.7362 28.7992C81.3692 29.1992 82.3187 29.4992 83.7428 29.4992C85.167 29.4992 86.1164 29.2992 86.7494 28.7992C87.3824 28.2992 87.6989 27.4992 87.6989 26.3992V18.1992H90.7054V26.3992C90.7054 28.0992 90.2308 29.2992 88.9648 29.9992C87.8571 30.6992 86.1165 31.0992 83.7428 31.0992C78.9956 31.0992 76.7802 29.7992 76.7802 26.3992Z" fill="black"/>
<path d="M100.991 18.1992H104.947L107.163 22.3992L108.429 25.1992L109.695 22.3992L111.91 18.1992H115.708V30.8992H113.018V23.3992L113.334 19.8992L109.378 27.2992H107.163L103.207 19.8992L103.523 23.3992V30.8992H100.833V18.1992H100.991Z" fill="black"/>
<path d="M125.835 18.1992H129.791L132.007 22.3992L133.273 25.1992L134.538 22.3992L136.754 18.1992H140.552V30.8992H137.862V23.3992L138.178 19.8992L134.222 27.2992H132.007L128.051 19.8992L128.367 23.3992V30.8992H125.677V18.1992H125.835Z" fill="black"/>
<path d="M156.534 25.7996L148.78 18.0996H152.103L155.11 21.0996L158.117 24.2996L161.123 21.0996L164.13 18.0996H167.453L159.699 25.7996V30.8996H156.692V25.7996H156.534Z" fill="black"/>
<path d="M2.88129 36.2998H15.8571V37.8998H5.72966V41.6998H14.433V43.2998H5.72966V47.3998H15.8571V48.9998H2.88129V36.2998Z" fill="black"/>
<path d="M27.7253 36.2998H31.6813L38.011 47.1998L37.6945 43.4998V36.2998H40.3846V48.9998H36.4286L30.0989 38.0998L30.4154 41.7998V48.9998H27.7253V36.2998Z" fill="black"/>
<path d="M51.4615 44.8994C51.4615 44.5994 51.4616 44.2994 51.6198 44.0994H54.4681C54.4681 44.2994 54.3099 44.5994 54.3099 44.8994C54.3099 46.5994 55.5758 47.6994 58.2659 47.6994C61.2725 47.6994 62.3802 46.4994 62.3802 44.1994V36.3994H65.3868V44.2994C65.3868 47.5994 63.0132 49.3994 58.4242 49.3994C53.9934 49.2994 51.4615 47.4994 51.4615 44.8994Z" fill="black"/>
<path d="M75.6725 42.7C75.6725 38.6 78.2044 36 83.5846 36C86.2747 36 88.1736 36.6 89.4396 37.8C90.7055 39 91.3385 40.6 91.3385 42.6C91.3385 46.8 88.8066 49.3 83.4264 49.3C78.2044 49.3 75.6725 46.8 75.6725 42.7ZM87.6989 46C88.3319 45 88.4901 43.8 88.4901 42.7C88.4901 40.5 88.0154 37.7 83.5846 37.7C79.1538 37.7 78.8373 40.5 78.8373 42.7C78.8373 44.8 79.3121 47.7 83.5846 47.7C85.8 47.6 87.0659 46.9 87.6989 46Z" fill="black"/>
<path d="M107.004 43.9998L99.2506 36.2998H102.574L105.58 39.2998L108.587 42.4998L111.593 39.2998L114.6 36.2998H117.923L110.169 43.9998V49.0998H107.163V43.9998H107.004Z" fill="black"/>
<path d="M131.215 46.4994H135.171V48.9994H131.215V46.4994ZM131.69 40.2994V36.3994H134.697V40.3994L133.905 44.6994H132.481L131.69 40.2994Z" fill="black"/>
</svg>
