<svg width="67" height="106" viewBox="0 0 67 106" fill="none" xmlns="http://www.w3.org/2000/svg">
<path d="M54.433 105.2C46.9956 105.2 21.6769 104 19.778 103.5C19.6198 103.2 19.4615 102.9 19.4615 102.6C19.4615 102.6 18.3539 100.2 18.1956 99.7002L17.4044 98.0002C16.9297 97.0002 16.4549 95.9002 15.9802 94.9002C15.6637 94.2002 15.3473 93.6002 15.0308 92.9002C14.8725 92.6002 14.3978 91.6002 14.3978 91.6002C14.2395 91.2002 14.0813 90.8002 13.7648 90.4002C13.4483 89.7002 13.1318 89.1002 12.8154 88.4002C12.1824 87.1002 11.7077 85.8002 11.0747 84.5002C10.4418 83.2002 9.80879 81.8002 9.33407 80.4002C9.01758 79.6002 8.70109 78.8002 8.38461 77.9002C8.06812 77.2002 7.75163 76.5002 7.43515 75.9002C7.27691 75.5002 6.96043 75.1002 6.80219 74.6002C5.37801 71.6002 4.1121 68.5002 3.16265 65.4002C2.68792 63.7002 2.37143 62.1002 2.21319 60.5002C2.21319 59.6002 2.21318 58.7002 2.05494 57.8002V57.6002C2.05494 56.5002 2.05493 55.3002 1.89669 54.2002C1.73845 52.0002 1.73847 50.1002 1.58023 48.3002C1.58023 47.7002 1.42198 47.0002 1.42198 46.4002C1.42198 46.0002 1.26373 45.5002 1.26373 45.1002C1.26373 44.4002 1.10548 43.8002 1.10548 43.1002L0.947227 41.1002C0.788985 40.0002 0.789014 38.8002 0.630773 37.7002C0.472531 35.4002 0.472512 33.3002 0.31427 31.4002C0.31427 30.0002 0.31427 28.4002 0.31427 26.6002C0.31427 25.7002 0.472521 24.8002 0.472521 23.9002C0.472521 23.4002 0.630773 22.9002 0.630773 22.4002C0.630773 22.1002 0.630773 21.9002 0.630773 21.6002C0.630773 21.2002 0.630773 21.0002 0.630773 20.7002C0.630773 20.5002 0.630773 20.3002 0.630773 20.1002C0.630773 19.9002 0.630773 19.8002 0.630773 19.6002C0.789014 18.9002 0.788985 18.1002 0.947227 17.4002C1.10547 16.4002 1.26371 15.7002 1.73844 15.0002C2.21316 14.4002 2.68789 14.1002 3.32085 13.9002C3.79558 13.8002 4.27034 13.7002 4.74507 13.7002C5.37803 13.7002 6.01096 13.8002 6.48569 14.1002C7.59338 14.6002 8.22637 15.3002 8.54286 16.2002L8.70111 16.8002C8.85935 17.3002 9.01757 17.8002 9.17581 18.3002C9.33406 19.4002 9.49232 20.3002 9.49232 21.2002C9.49232 22.0002 9.65053 22.8002 9.80877 23.5002C9.80877 23.8002 9.96702 24.0002 9.96702 24.3002C9.96702 24.8002 10.1253 25.3002 10.1253 25.7002C10.2835 26.3002 10.2835 27.0002 10.4417 27.6002C10.6 28.6002 10.7583 29.5002 11.0747 30.5002L11.3912 31.9002C11.5494 32.7002 11.7077 33.6002 11.8659 34.4002C12.1824 35.5002 12.3406 36.6002 12.8154 38.0002C12.8154 38.1002 12.8154 38.2002 12.6572 38.4002C12.0242 39.2002 11.5494 40.1002 11.3912 41.0002C11.2329 42.1002 11.2329 43.2002 11.3912 44.4002V45.0002C11.3912 45.7002 11.5494 46.4002 11.7077 47.1002C11.8659 47.9002 12.1824 48.8002 12.3406 49.6002C12.4989 50.4002 12.6571 51.1002 12.9736 51.8002C13.2901 53.4002 13.9231 55.0002 14.556 56.5002C14.7143 57.1002 15.0307 57.6002 15.189 58.2002C15.5055 59.3002 15.9802 60.2002 16.2967 61.1002C16.4549 61.6002 16.7714 62.0002 17.0879 62.4002C17.2461 62.5002 17.2462 62.7002 17.4044 62.8002C17.8791 63.6002 18.5121 64.5002 19.4615 65.3002C20.5692 66.2002 21.9934 66.8002 23.5758 67.0002C23.8923 67.0002 24.2088 67.1002 24.6835 67.1002C25.4747 67.1002 26.4242 67.0002 27.2154 66.7002C28.1648 66.4002 28.956 66.1002 29.9055 65.8002C30.0637 65.7002 30.0637 65.7002 30.2219 65.7002H30.3802C31.1714 65.9002 31.9626 66.1002 33.0703 66.2002C33.3868 66.2002 33.545 66.2002 33.8615 66.2002C35.4439 66.2002 36.7099 65.9002 38.134 65.2002C39.7164 64.4002 40.8241 63.4002 41.2989 62.0002C41.4571 61.7002 41.4571 61.4002 41.6154 61.1002C41.7736 60.7002 41.9318 60.3002 42.0901 60.0002C42.0901 59.9002 42.0901 59.9002 42.0901 59.8002C42.2483 60.0002 42.5648 60.2002 42.7231 60.4002C43.1978 60.8002 43.5143 61.2002 43.989 61.5002C44.622 62.2002 45.2549 62.8002 45.5714 63.5002C45.8879 64.1002 46.5209 64.6002 47.1538 65.1002C47.3121 65.2002 47.4703 65.4002 47.6285 65.5002C48.1033 65.9002 48.578 66.3002 49.2109 66.7002L49.3692 66.8002C49.3692 66.8002 51.4264 67.8002 52.2176 68.2002C52.3758 68.3002 52.534 68.4002 52.8505 68.4002H53.0088C53.167 68.4002 53.4835 68.4002 53.6417 68.3002C53.8 68.2002 53.8 68.1002 53.8 68.0002C53.8 67.9002 53.6417 67.7002 53.4835 67.6002L52.8505 67.3002C52.2176 67.0002 51.7428 66.7002 51.1099 66.4002C50.4769 66.1002 49.8439 65.8002 49.3692 65.4002L48.8945 64.9002C48.4198 64.5002 47.945 64.1002 47.4703 63.7002C47.3121 63.6002 47.3121 63.5002 47.1538 63.3002C47.1538 63.2002 46.9956 63.1002 46.9956 63.1002L46.5209 62.6002C46.2044 62.1002 45.7296 61.6002 45.2549 61.2002C44.9384 60.9002 44.622 60.6002 44.3055 60.3002C43.989 60.1002 43.8308 59.8002 43.5143 59.6002C42.8813 59.0002 42.4066 58.5002 41.9319 57.9002C40.9824 56.6002 39.4 55.6002 37.0264 55.1002C34.3363 54.4002 31.4879 53.7002 28.7978 52.7002C27.8483 52.3002 27.2154 52.0002 26.5824 51.7002C24.2088 50.4002 22.4681 49.1002 21.0439 47.7002C20.5692 47.2002 20.0945 46.6002 19.778 45.9002C19.6198 45.5002 19.6197 45.1002 19.9362 44.5002C20.2527 44.0002 20.5692 43.4002 21.2022 42.9002L21.3604 43.0002C21.6769 43.2002 22.1516 43.3002 22.4681 43.5002C24.2088 44.4002 26.2659 45.1002 28.0066 45.7002C28.956 46.0002 29.9055 46.3002 31.0132 46.6002C31.4879 46.7002 31.9626 46.8002 32.2791 46.8002C32.4374 46.8002 32.7538 46.9002 32.9121 46.9002C33.0703 46.9002 33.0703 46.9002 33.2286 46.9002C33.7033 46.9002 34.0198 46.7002 34.0198 46.5002C34.3363 45.8002 34.6527 45.1002 34.9692 44.4002C34.9692 44.3002 35.1274 44.2002 35.1274 44.1002C36.3934 44.3002 37.6593 44.4002 38.9252 44.5002C39.7164 44.5002 41.4571 44.6002 41.4571 44.6002C42.4066 44.6002 43.5143 44.7002 44.6219 44.7002C46.0461 44.8002 47.312 45.1002 48.4197 45.8002C49.6857 46.5002 50.6351 47.4002 51.7428 48.5002C52.0593 48.8002 52.2175 49.1002 52.534 49.3002C53.0088 49.8002 53.4835 50.3002 53.9582 50.8002C54.5912 51.4002 55.2242 52.1002 56.0154 52.6002C56.4901 53.0002 56.9648 53.3002 57.5978 53.6002L57.756 53.7002C58.2308 54.0002 58.7055 54.3002 59.1802 54.5002C59.8132 54.8002 60.2879 55.2002 60.9209 55.7002L61.0791 55.8002C62.1868 56.7002 63.2945 57.6002 64.2439 58.6002C65.1934 59.6002 65.6681 60.6002 65.9846 61.5002C66.3011 62.5002 66.3011 63.5002 66.1428 64.5002V65.1002C66.1428 66.5002 65.8263 67.8002 65.3516 69.1002V69.3002C65.0351 70.0002 64.8769 70.8002 64.5604 71.6002C64.0857 72.6002 63.7692 73.5002 63.2945 74.5002C62.6615 75.8002 62.1868 77.0002 61.7121 78.2002C61.3956 78.9002 61.2374 79.6002 60.9209 80.3002C60.9209 80.3002 60.7626 80.9002 60.6044 81.2002L60.2879 82.3002C59.9714 83.2002 59.6549 84.1002 59.4967 84.9002C59.1802 85.8002 59.0219 86.8002 58.7054 87.7002L58.389 89.1002L58.0725 90.4002C57.756 91.3002 57.5978 92.1002 57.2813 93.0002C57.123 93.8002 56.9648 94.5002 56.8066 95.3002L56.6483 96.4002C56.6483 96.6002 56.6483 96.7002 56.4901 96.9002C56.3318 97.5002 56.1736 98.0002 56.1736 98.6002C56.1736 98.8002 56.1736 99.0002 56.0154 99.2002V99.3002C55.6989 100.7 55.5406 102.2 55.6989 104C55.6989 104.1 55.6989 104.2 55.6989 104.3C55.6989 105.1 55.3824 105.2 54.433 105.2Z" fill="black"/>
<path d="M57.756 52.3004C57.4396 52.1004 57.1231 51.8004 56.8066 51.6004C56.1736 51.1004 55.5406 50.4004 54.9077 49.7004C53.9582 48.6004 52.6923 47.5004 51.5846 46.5004C50.4769 45.5004 49.0528 44.8004 47.4703 44.5004C46.6791 44.3004 45.7296 44.2004 44.4637 44.1004V44.0004C44.4637 43.6004 44.4637 43.4004 44.4637 43.1004C44.6219 42.0004 44.4637 40.9004 44.1473 39.6004C43.989 38.8004 43.8307 38.1004 43.8307 37.4004C43.8307 35.3004 43.8308 33.0004 44.1473 30.4004C44.1473 30.0004 44.1473 29.6004 44.1473 29.1004C44.1473 28.9004 44.1473 28.6004 44.1473 28.4004C44.1473 28.0004 44.1473 27.7004 44.1473 27.3004C44.1473 27.3004 44.4637 19.8004 44.4637 19.2004C44.4637 18.6004 44.4637 17.9004 44.4637 17.3004C44.4637 16.0004 44.4637 14.6004 44.622 13.2004C44.7802 11.5004 44.9384 10.2004 45.4132 9.10039C45.4132 9.00039 45.4132 8.80039 45.5714 8.70039C45.5714 8.60039 45.5714 8.50039 45.5714 8.40039C45.7297 8.00039 45.7297 7.50039 45.8879 7.10039C46.2044 6.00039 46.3626 4.90039 46.8373 3.80039C46.9956 3.30039 47.3121 2.80039 47.6285 2.40039C48.2615 1.60039 49.3692 1.10039 50.7934 1.00039C51.1099 0.900391 51.4264 0.900391 51.9011 0.900391C52.0593 0.900391 52.2176 0.900391 52.2176 0.900391C53.167 0.900391 53.8 1.20039 54.2747 1.80039C54.5912 2.20039 54.9077 2.60039 55.2242 3.10039C56.1736 4.80039 56.1736 6.50039 56.3318 8.30039C56.3318 8.90039 56.3318 9.40039 56.3318 10.0004C56.3318 11.2004 56.3318 12.5004 56.3318 13.7004C56.3318 14.7004 56.4901 15.6004 56.6483 16.5004C56.6483 16.9004 56.8066 17.2004 56.8066 17.6004C56.8066 17.9004 56.8066 18.1004 56.9648 18.4004C56.9648 18.9004 57.123 19.4004 57.123 19.9004C57.2813 22.2004 57.4396 25.2004 57.5978 28.2004C57.5978 28.9004 57.5978 29.7004 57.5978 30.4004V30.5004C57.5978 31.1004 57.5978 31.7004 57.5978 32.3004C57.5978 32.9004 57.5978 33.5004 57.4395 34.1004C57.4395 34.5004 57.2813 34.9004 57.2813 35.3004C57.2813 35.9004 57.2813 36.4004 57.2813 37.0004C57.2813 37.4004 57.2813 37.8004 57.2813 38.2004C57.2813 38.7004 57.2813 39.2004 57.123 39.7004C57.123 40.3004 56.9648 41.0004 56.9648 41.7004V42.4004C56.9648 43.9004 56.8066 45.4004 56.9648 47.0004C56.9648 47.2004 56.9648 47.5004 56.9648 47.7004C56.9648 47.9004 56.9648 48.1004 56.9648 48.3004L57.756 52.3004Z" fill="black"/>
<path d="M25.1583 66.4004C24.367 66.4004 23.5758 66.3004 22.7846 66.1004C22.1517 66.0004 21.6769 65.7004 21.2022 65.3004C20.2528 64.6004 19.6198 63.7004 19.145 62.9004C18.3538 61.6004 17.5627 60.3004 17.2462 58.9004C16.9297 58.1004 16.6132 57.2004 16.455 56.5004C16.1385 55.6004 15.822 54.7004 15.5055 53.8004C15.3473 53.1004 15.189 52.5004 15.0308 51.8004C14.8726 51.4004 14.8725 51.1004 14.7143 50.7004C14.5561 50.3004 14.556 49.9004 14.3978 49.5004C14.2395 48.7004 13.9231 47.9004 13.7648 47.1004C13.2901 44.9004 13.2901 43.1004 13.6066 41.5004C13.7648 40.7004 13.9231 40.1004 14.3978 39.5004C14.8725 38.9004 15.5055 38.4004 16.455 38.1004C16.7714 38.0004 17.2461 38.0004 17.5626 37.9004C18.0374 37.9004 18.3539 37.9004 18.8286 37.9004C20.2528 37.9004 21.3604 38.0004 22.4681 38.4004C23.1011 38.6004 23.5758 38.8004 23.8923 39.1004C24.5253 39.6004 25.1582 40.1004 25.7912 40.7004C26.1077 41.0004 26.2659 41.3004 26.2659 41.6004C25.9494 41.5004 25.4747 41.5004 25.1583 41.5004C24.367 41.5004 23.5758 41.6004 22.7846 41.9004C21.044 42.5004 19.9363 43.4004 19.4615 44.7004C19.3033 45.1004 19.145 45.5004 19.145 45.9004C19.145 46.5004 19.3033 47.1004 19.6198 47.7004C20.2528 48.9004 21.5187 49.9004 22.7846 50.8004C24.0506 51.8004 25.4747 52.7004 27.0571 53.5004C27.2154 53.5004 27.2154 53.6004 27.2154 53.7004V53.8004C27.2154 54.7004 27.0571 55.7004 27.0571 56.6004C27.0571 57.2004 27.0571 57.9004 27.0571 58.5004V59.4004L21.6769 60.1004C21.2022 60.2004 20.7275 60.2004 20.2528 60.3004C19.6198 60.4004 19.3033 60.7004 19.4615 61.2004C19.778 62.0004 20.2527 62.7004 20.7275 63.4004C21.3604 64.2004 22.1517 64.8004 23.4176 65.4004C24.367 65.9004 25.4747 66.0004 26.4242 66.0004H26.7407C26.8989 66.0004 27.0571 66.0004 27.2154 66.0004C27.3736 66.0004 27.5319 66.0004 27.5319 66.0004C28.1649 66.0004 28.7978 65.8004 29.2726 65.7004L29.4308 65.8004C29.1143 65.9004 28.7978 66.0004 28.4813 66.1004C28.3231 66.1004 28.1648 66.2004 28.0066 66.2004C26.7407 66.3004 25.9495 66.4004 25.1583 66.4004Z" fill="black"/>
<path d="M42.5648 44.1008C41.9319 44.1008 41.4571 44.1008 40.8242 44.0008C38.4505 43.9008 36.2352 43.5008 34.0198 43.1008L33.7033 43.0008C32.2791 42.7008 31.0132 42.5008 29.589 42.2008L28.0066 41.9008C27.8483 41.5008 27.8483 41.3008 27.8483 41.0008C28.3231 39.8008 28.956 38.8008 29.7472 37.8008C30.3802 37.1008 31.1714 36.6008 32.4374 36.3008C33.5451 36.0008 34.6527 35.8008 35.9187 35.8008C37.0264 35.8008 38.1341 35.9008 39.4 36.2008C40.033 36.3008 40.5077 36.6008 40.9824 37.0008L41.1407 37.1008C41.9319 37.7008 42.2484 38.4008 42.4066 39.1008C42.5648 39.8008 42.7231 40.6008 42.8813 41.3008L43.0396 41.8008C43.0396 42.0008 43.0396 42.2008 43.0396 42.5008C43.0396 42.9008 43.0396 43.4008 43.0396 43.8008V44.1008H42.5648Z" fill="black"/>
<path d="M33.3868 65.7006C32.4374 65.7006 31.6462 65.5006 30.855 65.2006C29.4308 64.5006 28.4813 63.6006 28.3231 62.4006C28.1648 61.6006 28.1648 60.8006 28.1648 60.0006C28.1648 59.6006 28.1648 59.2006 28.1648 58.7006C28.1648 57.9006 28.1648 57.1006 28.3231 56.3006C28.3231 55.8006 28.4813 55.3006 28.4813 54.8006C28.4813 54.6006 28.4813 54.3006 28.4813 54.1006L28.6395 54.2006C29.2725 54.4006 29.9055 54.6006 30.3802 54.8006C32.5956 55.5006 34.4945 56.1006 36.3935 56.5006C37.1847 56.6006 38.2923 56.9006 39.0835 57.3006C39.5583 57.5006 39.8748 57.8006 40.033 58.0006C40.033 58.0006 40.5077 58.5006 40.666 58.6006C40.8242 58.8006 40.9825 59.0006 40.8242 59.3006C40.666 60.2006 40.3495 61.1006 39.8748 61.9006C39.7165 62.2006 39.5583 62.4006 39.4001 62.7006C39.2418 62.9006 39.0835 63.2006 38.9253 63.4006C38.6088 64.1006 37.6594 64.6006 36.7099 65.1006C35.9187 65.5006 34.811 65.6006 33.8616 65.7006C33.8616 65.7006 33.7033 65.7006 33.3868 65.7006ZM29.589 61.8006C29.589 62.0006 29.589 62.2006 29.589 62.4006V62.5006C29.589 62.9006 29.7473 63.2006 29.9055 63.6006C30.222 64.2006 31.0132 64.6006 31.8044 64.8006C32.2791 64.9006 32.5956 64.9006 32.9121 64.9006H33.8616C34.3363 64.9006 34.811 64.9006 35.444 64.8006C36.3934 64.7006 37.1847 64.3006 37.8176 63.6006C38.4506 62.9006 38.7671 62.1006 38.9253 61.3006C39.0835 60.6006 39.0836 59.9006 39.2418 59.3006C39.4 58.8006 39.0835 58.6006 38.2923 58.5006C35.7605 58.2006 33.2286 58.0006 30.6967 57.8006C30.5385 57.8006 30.5385 57.8006 30.3802 57.8006C29.589 57.8006 29.589 58.2006 29.4307 58.4006C29.2725 59.0006 29.2725 60.9006 29.2725 61.2006L29.589 61.8006Z" fill="black"/>
<path d="M33.2286 46.4C32.7538 46.3 32.4374 46.3 32.2791 46.2C31.1714 45.9 30.0637 45.6 28.956 45.1L28.1648 44.8C27.3736 44.5 26.5824 44.2 25.9495 44C25.1583 43.7 24.5253 43.4 23.7341 43L23.2593 42.8C23.7341 42.6 24.2088 42.5 24.6835 42.5H24.8418C25.4747 42.5 25.9495 42.6 26.5824 42.8C27.3736 43 28.1648 43.2 28.956 43.4L29.4307 43.5C30.6967 43.8 31.8044 44 33.0703 44.3L34.178 44.5L33.2286 46.4Z" fill="black"/>
<path d="M25.7912 64.7004C24.5253 64.7004 23.734 64.4004 23.1011 63.8004C22.3099 63.0004 21.3604 62.1004 20.8857 61.1004C21.2022 61.0004 21.5187 61.0004 21.6769 61.0004C23.1011 60.8004 24.5253 60.7004 25.9495 60.5004L26.5824 60.4004C26.5824 60.6004 26.5824 60.8004 26.5824 60.9004C26.5824 61.4004 26.7407 62.1004 26.7407 62.7004C26.7407 63.2004 27.0571 63.7004 27.5319 64.3004L27.6901 64.6004C27.3736 64.7004 27.2154 64.7004 26.8989 64.7004C26.5824 64.7004 26.2659 64.7004 25.9495 64.7004H25.7912Z" fill="black"/>
<path d="M33.8615 63.9C33.3868 63.9 32.9121 63.9 32.4374 63.8C31.8044 63.7 31.4879 63.4 31.4879 63C31.4879 62.6 31.4879 62.2 31.3297 61.8V61.4C31.3297 61 31.3297 60.6 31.3297 60.2V59C33.0703 59.1 36.5517 59.4 37.8176 59.6C37.8176 59.8 37.8176 60 37.6594 60.2L37.5011 60.8C37.5011 61.2 37.3429 61.5 37.3429 61.8C37.1846 62.3 37.0264 62.8 36.5517 63.2C36.0769 63.6 35.6022 63.9 34.6528 63.9C34.3363 63.9 34.0198 63.9 33.8615 63.9Z" fill="black"/>
</svg>
