<svg width="156" height="44" viewBox="0 0 156 44" fill="none" xmlns="http://www.w3.org/2000/svg">
<path d="M50.4594 0.799805V2.59981H37.3253V8.89981H47.611V10.6998H37.3253V18.6998H33.844V0.799805H50.4594Z" fill="black"/>
<path d="M59.4791 4.6L54.5736 3.9L55.5231 2.2L60.2703 3.4L59.9538 0H62.8022L62.4857 3.4L67.0747 2.2L68.0242 3.9L63.1187 4.6L66.4418 7.4L64.2264 8.4L61.2198 5.4L58.3714 8.4L55.9978 7.4L59.4791 4.6Z" fill="black"/>
<path d="M71.3473 9.9V9.7C71.3473 4.4 76.8857 0.5 84.7978 0.5C90.6527 0.5 95.7165 2.5 96.3494 6.4H92.8681C92.0769 3.7 89.7033 2.3 84.7978 2.3C78.9429 2.3 74.9868 5.2 74.9868 9.7V9.9C74.9868 14.5 78.6264 17.2 84.7978 17.2C89.3868 17.2 92.7099 15.7 93.3429 12.8H96.5077C95.5582 16.9 90.9692 19 84.6396 19C76.411 18.9 71.3473 15.4 71.3473 9.9Z" fill="black"/>
<path d="M105.844 0.800194V9.4002L118.187 0.700195H121.985L109.325 9.4002L122.618 18.6002H118.503L105.844 9.80019V18.6002H102.363V0.800194H105.844Z" fill="black"/>
<path d="M8.52527 25.9004C13.9055 25.9004 18.4945 27.4004 18.4945 31.1004V31.2004C18.4945 35.0004 13.9055 36.5004 8.52527 36.5004H3.93627V43.8004H0.454956V25.9004H8.52527ZM15.0132 31.2004V31.1004C15.0132 28.6004 12.6396 27.6004 8.84175 27.6004H3.93627V34.7004H8.84175C12.7978 34.8004 15.0132 33.5004 15.0132 31.2004Z" fill="black"/>
<path d="M27.5143 25.9004V42.0004H40.4901V43.8004H24.033V25.9004H27.5143Z" fill="black"/>
<path d="M57.8967 25.9004L67.5495 43.8004H64.0682L61.2198 38.6004H49.5099L46.8198 43.8004H43.4967L53.3077 25.9004H57.8967ZM60.4286 36.9004L55.5231 27.7004L50.6176 36.9004H60.4286Z" fill="black"/>
<path d="M70.8725 38.2996H74.1956C74.6703 40.3996 76.0945 42.1996 81.7912 42.1996C85.4308 42.1996 88.2791 40.7996 88.2791 38.7996C88.2791 36.7996 86.8549 35.8996 81.3165 35.3996C75.3033 34.7996 71.822 33.6996 71.822 30.4996C71.822 27.7996 75.6198 25.5996 81 25.5996C86.6967 25.5996 90.178 27.2996 90.811 30.4996H87.6462C87.0132 28.1996 84.956 27.2996 81 27.2996C77.044 27.2996 75.1451 28.4996 75.1451 30.1996C75.1451 31.8996 76.2528 32.8996 81.9495 33.3996C88.2791 33.9996 91.6022 35.2996 91.6022 38.5996C91.6022 41.5996 87.4879 43.8996 81.7912 43.8996C74.0374 43.9996 71.3473 41.3996 70.8725 38.2996Z" fill="black"/>
<path d="M94.4506 27.5998V25.7998H114.547V27.5998H106.319V43.7998H102.837V27.5998H94.4506Z" fill="black"/>
<path d="M123.409 25.9004V43.8004H119.927V25.9004H123.409Z" fill="black"/>
<path d="M129.897 34.9V34.7C129.897 29.4 135.435 25.5 143.347 25.5C149.202 25.5 154.266 27.5 154.899 31.4H151.418C150.626 28.7 148.253 27.3 143.347 27.3C137.492 27.3 133.536 30.2 133.536 34.7V34.9C133.536 39.5 137.176 42.2 143.347 42.2C147.936 42.2 151.259 40.7 151.892 37.8H155.057C154.108 41.9 149.519 44 143.189 44C134.96 44 129.897 40.5 129.897 34.9Z" fill="black"/>
</svg>
