<svg width="130" height="97" viewBox="0 0 130 97" fill="none" xmlns="http://www.w3.org/2000/svg">
<path d="M26.2945 27.2996C28.1934 26.5996 29.7758 25.7996 31.5165 25.1996C43.5428 20.1996 51.455 16.8996 67.7539 16.9996C83.4198 17.0996 91.4901 21.2996 99.2439 25.1996C100.51 25.8996 101.776 26.4996 103.042 27.0996C111.587 31.1996 120.448 32.4997 129.785 30.8997C117.283 10.2996 93.389 0.999645 84.2109 0.799645C76.4571 0.599645 69.6527 3.29965 64.9054 3.39965C60.1582 3.59965 55.2527 0.899645 47.6571 0.799645C40.0615 0.699645 26.1362 6.09965 17.2747 12.1996C9.36261 17.5996 1.76697 28.5996 0.0263062 30.8997C0.0263062 31.0996 11.578 33.2996 26.2945 27.2996ZM20.4395 13.7996C25.6615 9.79965 44.3341 -0.300355 59.8418 5.59965C60.3165 5.79965 60.4747 6.19965 60.1582 6.49965C59.8417 6.79965 59.2088 6.89965 58.7341 6.69965C44.4923 1.29965 27.0857 10.7996 22.0219 14.5996C21.8637 14.7996 21.5472 14.7996 21.2307 14.7996C21.0725 14.7996 20.756 14.6996 20.5977 14.5996C20.123 14.4996 20.123 14.0996 20.4395 13.7996Z" fill="black"/>
<path d="M81.2044 37.4992C80.8879 37.5992 80.5714 37.5992 80.2549 37.6992C80.2549 37.6992 77.4065 38.3992 75.9824 38.4992C73.767 38.8992 71.7098 39.1992 69.6527 39.3992C67.7538 39.5992 65.855 39.6992 63.7978 39.6992C60.1583 39.6992 56.2022 39.2992 50.9802 38.3992C50.189 38.2992 48.4483 37.8992 48.4483 37.8992C45.9165 37.3992 43.2263 36.7992 40.2198 36.0992C27.0857 32.8992 3.0329 33.2992 0.0263062 33.3992C9.04609 49.6992 26.9274 55.8992 36.4219 57.5992C41.1692 58.4992 48.2901 59.5992 57.6263 60.0992C54.4615 50.7992 42.4351 47.4992 42.2769 47.3992C41.8022 47.2992 41.4857 46.8992 41.644 46.4992C41.8022 46.1992 42.4351 45.9992 43.0681 46.0992C43.2263 46.0992 47.3406 47.2992 51.6132 50.0992C54.3033 51.5992 56.8351 53.4992 58.1011 55.6992C61.1076 61.2992 60.7912 63.3992 60.7912 69.3992C60.7912 80.8992 59.6834 84.5992 58.5758 87.8992C56.9933 92.9992 58.2593 96.6992 62.0571 96.6992C67.1208 96.6992 65.8549 91.5992 65.5384 89.0992C65.2219 86.5992 63.0065 84.5992 63.323 75.9992C63.4813 70.7992 63.323 65.7992 63.323 62.7992C63.323 61.4992 63.7977 59.2992 64.9054 57.0992C64.9054 57.0992 64.9054 57.0992 64.9054 56.9992C65.5384 55.4992 66.6461 54.0992 68.2286 53.1992C68.7033 52.8992 69.0198 52.6992 69.4945 52.4992C70.6022 51.9992 71.8681 51.6992 73.2923 51.6992C74.4 51.6992 75.5077 51.8992 76.4572 52.1992C77.7231 52.4992 78.9889 53.0992 79.9384 53.7992C81.3626 54.7992 82.3121 56.1992 82.945 57.6992C83.7362 59.1992 84.2109 60.7992 84.2109 61.8992C84.2109 65.1992 84.2109 71.4992 84.2109 71.4992C84.2109 71.4992 83.8945 74.5992 82.6285 77.6992C81.5208 80.5992 81.9956 84.1992 85.0022 84.1992C87.0593 84.1992 88.3252 82.3992 87.3758 78.9992C86.2681 75.1992 86.1099 74.4992 86.1099 71.3992C86.1099 68.2992 86.1099 62.7992 86.1099 62.7992C86.1099 62.7992 85.9516 61.3992 86.4264 59.4992C86.4264 59.3992 86.4264 59.2992 86.4264 59.1992C86.4264 58.8992 86.5846 58.5992 86.5846 58.3992C86.5846 58.1992 86.7429 57.9992 86.7429 57.7992C87.3758 56.0992 88.3252 54.1992 90.0659 52.5992C90.2242 52.4992 90.3824 52.2992 90.5406 52.1992C93.389 49.2992 96.7121 47.2992 97.0286 47.0992C97.5033 46.7992 98.1363 46.8992 98.611 47.0992C99.0857 47.3992 98.9275 47.7992 98.611 48.0992C98.4528 48.1992 90.6989 52.7992 88.9582 58.2992C90.6989 57.9992 92.4396 57.7992 94.3385 57.3992C119.341 52.9992 128.202 36.6992 129.785 33.1992C127.411 33.2992 113.011 33.8992 101.143 34.5992C93.389 35.0992 86.9011 36.3992 81.2044 37.4992Z" fill="black"/>
<path d="M63.956 36.1992H48.4484V36.4992C55.0945 37.7992 59.6835 38.2992 63.956 38.2992V36.1992Z" fill="black"/>
<path d="M69.3363 38.0992C72.6593 37.7992 76.2988 37.0992 80.2549 36.2992V36.1992H66.1714V38.2992C67.2791 38.1992 68.2286 38.1992 69.3363 38.0992Z" fill="black"/>
<path d="M73.2924 53.2998C71.8682 53.2998 70.7605 53.5998 69.811 54.2998C67.7539 55.6998 66.6462 58.0998 66.1714 60.2998C70.9187 60.2998 75.9824 59.9998 81.5209 59.3998C80.8879 57.6998 79.9385 55.9998 78.356 54.8998C76.9318 53.7998 75.3495 53.2998 73.2924 53.2998Z" fill="black"/>
<path d="M87.5342 24.2992C88.0089 24.6992 88.6418 24.9992 90.066 24.9992C91.9648 24.9992 93.7054 24.9992 94.9713 24.8992C94.3384 24.5992 93.8637 24.2992 93.2307 24.0992C93.2307 24.0992 93.2308 24.0992 93.0725 23.9992C91.9649 23.4992 91.0154 22.9992 89.9078 22.5992C89.5913 22.4992 89.433 22.3992 89.1166 22.2992C88.6418 22.0992 88.0089 21.8992 87.5342 21.6992V24.2992Z" fill="black"/>
<path d="M45.1252 21.5V25.2C46.0747 26.2 48.4484 27.6 54.778 27.6C61.2659 27.6 63.4813 26.7 64.2725 25.7V18.5C56.5187 18.6 50.8219 19.6 45.1252 21.5Z" fill="black"/>
<path d="M67.5956 18.3994C67.2791 18.3994 66.9627 18.3994 66.6462 18.3994V25.9994C67.5956 26.8994 70.1275 27.4994 75.8241 27.4994C82.1538 27.4994 84.5274 26.0994 85.4768 25.0994V20.8994C80.7296 19.3994 75.0329 18.3994 67.5956 18.3994Z" fill="black"/>
<path d="M35.9472 24.8996C37.2131 24.9996 38.7955 24.9996 40.6944 24.9996C41.9604 24.9996 42.5933 24.6996 43.0681 24.3996V22.0996C40.8527 22.9996 38.4791 23.8996 35.9472 24.8996Z" fill="black"/>
</svg>
